<mxfile host="app.diagrams.net" modified="2023-06-18T19:16:29.845Z" agent="Mozilla/5.0 (X11; Ubuntu; Linux x86_64; rv:109.0) Gecko/20100101 Firefox/113.0" etag="qJ6LHUI3QnbePwcqGRGV" version="21.5.0" type="device">
  <diagram name="Página-1" id="wzl2iM9PVvUTt73wQBI-">
    <mxGraphModel dx="1119" dy="792" grid="1" gridSize="10" guides="1" tooltips="1" connect="1" arrows="1" fold="1" page="1" pageScale="1" pageWidth="827" pageHeight="1169" math="0" shadow="0">
      <root>
        <mxCell id="0" />
        <mxCell id="1" parent="0" />
        <mxCell id="fM9ERTei-pjhAEtj_w_p-37" style="edgeStyle=orthogonalEdgeStyle;rounded=0;orthogonalLoop=1;jettySize=auto;html=1;entryX=0.5;entryY=0;entryDx=0;entryDy=0;" edge="1" parent="1" source="fM9ERTei-pjhAEtj_w_p-29" target="fM9ERTei-pjhAEtj_w_p-33">
          <mxGeometry relative="1" as="geometry" />
        </mxCell>
        <mxCell id="fM9ERTei-pjhAEtj_w_p-29" value="&lt;h3&gt;&lt;font face=&quot;Verdana&quot;&gt;Atendente&lt;/font&gt;&lt;/h3&gt;" style="swimlane;fontStyle=0;childLayout=stackLayout;horizontal=1;startSize=30;horizontalStack=0;resizeParent=1;resizeParentMax=0;resizeLast=0;collapsible=1;marginBottom=0;whiteSpace=wrap;html=1;" vertex="1" parent="1">
          <mxGeometry x="290" y="140" width="220" height="140" as="geometry" />
        </mxCell>
        <mxCell id="fM9ERTei-pjhAEtj_w_p-30" value="&lt;pre&gt;&lt;font face=&quot;Verdana&quot;&gt;&lt;code class=&quot;!whitespace-pre hljs language-diff&quot;&gt;1. Solicitar cadastro&lt;br&gt;2. Receber dados&lt;br&gt;3. Verificar disponibilidade&lt;br&gt;4. Selecionar veículo&lt;br&gt;5. Registrar reserva  &lt;br&gt;6. Exibir recibo&lt;/code&gt;&lt;/font&gt;&lt;/pre&gt;" style="text;strokeColor=none;fillColor=none;align=left;verticalAlign=middle;spacingLeft=4;spacingRight=4;overflow=hidden;points=[[0,0.5],[1,0.5]];portConstraint=eastwest;rotatable=0;whiteSpace=wrap;html=1;" vertex="1" parent="fM9ERTei-pjhAEtj_w_p-29">
          <mxGeometry y="30" width="220" height="110" as="geometry" />
        </mxCell>
        <mxCell id="fM9ERTei-pjhAEtj_w_p-38" style="edgeStyle=orthogonalEdgeStyle;rounded=0;orthogonalLoop=1;jettySize=auto;html=1;entryX=0.5;entryY=0;entryDx=0;entryDy=0;" edge="1" parent="1" source="fM9ERTei-pjhAEtj_w_p-33" target="fM9ERTei-pjhAEtj_w_p-35">
          <mxGeometry relative="1" as="geometry" />
        </mxCell>
        <mxCell id="fM9ERTei-pjhAEtj_w_p-33" value="&lt;h3&gt;&lt;font face=&quot;Verdana&quot;&gt;Sistema&lt;/font&gt;&lt;/h3&gt;" style="swimlane;fontStyle=0;childLayout=stackLayout;horizontal=1;startSize=30;horizontalStack=0;resizeParent=1;resizeParentMax=0;resizeLast=0;collapsible=1;marginBottom=0;whiteSpace=wrap;html=1;" vertex="1" parent="1">
          <mxGeometry x="290" y="340" width="220" height="140" as="geometry" />
        </mxCell>
        <mxCell id="fM9ERTei-pjhAEtj_w_p-34" value="&lt;pre&gt;&lt;code class=&quot;!whitespace-pre hljs language-diff&quot;&gt;1. Validar dados&lt;br/&gt;2. Verificar disponibilidade&lt;br/&gt;3. Atualizar inventário&lt;br/&gt;4. Confirmar reserva&lt;br/&gt;5. Gerar recibo&lt;br/&gt;                &lt;/code&gt;&lt;/pre&gt;" style="text;strokeColor=none;fillColor=none;align=left;verticalAlign=middle;spacingLeft=4;spacingRight=4;overflow=hidden;points=[[0,0.5],[1,0.5]];portConstraint=eastwest;rotatable=0;whiteSpace=wrap;html=1;" vertex="1" parent="fM9ERTei-pjhAEtj_w_p-33">
          <mxGeometry y="30" width="220" height="110" as="geometry" />
        </mxCell>
        <mxCell id="fM9ERTei-pjhAEtj_w_p-35" value="&lt;h3&gt;&lt;font face=&quot;Verdana&quot;&gt;Cliente&lt;/font&gt;&lt;/h3&gt;" style="swimlane;fontStyle=0;childLayout=stackLayout;horizontal=1;startSize=30;horizontalStack=0;resizeParent=1;resizeParentMax=0;resizeLast=0;collapsible=1;marginBottom=0;whiteSpace=wrap;html=1;" vertex="1" parent="1">
          <mxGeometry x="290" y="540" width="220" height="90" as="geometry" />
        </mxCell>
        <mxCell id="fM9ERTei-pjhAEtj_w_p-36" value="&lt;pre&gt;&lt;code class=&quot;!whitespace-pre hljs language-diff&quot;&gt;1. Visualizar catálogo&lt;br/&gt;2. Escolher veículo                       &lt;/code&gt;&lt;/pre&gt;" style="text;strokeColor=none;fillColor=none;align=left;verticalAlign=middle;spacingLeft=4;spacingRight=4;overflow=hidden;points=[[0,0.5],[1,0.5]];portConstraint=eastwest;rotatable=0;whiteSpace=wrap;html=1;" vertex="1" parent="fM9ERTei-pjhAEtj_w_p-35">
          <mxGeometry y="30" width="220" height="60" as="geometry" />
        </mxCell>
      </root>
    </mxGraphModel>
  </diagram>
</mxfile>
